<?xml version="1.0" encoding="UTF-8"?>
<!DOCTYPE svg PUBLIC "-//W3C//DTD SVG 1.1//EN" "http://www.w3.org/Graphics/SVG/1.1/DTD/svg11.dtd">
<svg xmlns="http://www.w3.org/2000/svg" version="1.1" width="636px" height="636px" style="shape-rendering:geometricPrecision; text-rendering:geometricPrecision; image-rendering:optimizeQuality; fill-rule:evenodd; clip-rule:evenodd" xmlns:xlink="http://www.w3.org/1999/xlink">
<g><path style="opacity:1" fill="#fff" d="M 167.5,127.5 C 168.635,129.213 170.302,129.88 172.5,129.5C 174.153,129.66 175.486,130.326 176.5,131.5C 176.973,132.906 177.973,133.573 179.5,133.5C 181.452,136.118 183.785,138.452 186.5,140.5C 186.738,142.404 187.738,143.738 189.5,144.5C 192.749,149.252 194.416,154.585 194.5,160.5C 194.5,200.167 194.5,239.833 194.5,279.5C 277.668,279.833 360.668,279.499 443.5,278.5C 443.333,237.499 443.5,196.499 444,155.5C 445.061,151.05 446.895,147.05 449.5,143.5C 451.262,142.738 452.262,141.404 452.5,139.5C 455.764,137.906 458.431,135.573 460.5,132.5C 462.027,132.573 463.027,131.906 463.5,130.5C 467.533,129.975 471.2,128.642 474.5,126.5C 476.81,125.836 479.31,125.503 482,125.5C 486.112,125.349 489.946,126.016 493.5,127.5C 494.635,129.213 496.302,129.88 498.5,129.5C 500.153,129.66 501.486,130.326 502.5,131.5C 503.262,133.262 504.596,134.262 506.5,134.5C 507.326,136.264 508.659,137.598 510.5,138.5C 511.08,140.749 512.413,142.415 514.5,143.5C 515.338,143.842 515.672,144.508 515.5,145.5C 515.427,147.027 516.094,148.027 517.5,148.5C 518.939,150.588 519.606,152.921 519.5,155.5C 519.5,156.833 519.5,158.167 519.5,159.5C 520.791,159.737 521.791,159.404 522.5,158.5C 528.958,156.24 535.624,155.24 542.5,155.5C 547.044,156.491 551.711,157.491 556.5,158.5C 558.153,158.66 559.486,159.326 560.5,160.5C 561.035,162.446 562.368,163.446 564.5,163.5C 565.5,163.833 566.167,164.5 566.5,165.5C 567.419,168.089 569.086,170.089 571.5,171.5C 571.427,173.027 572.094,174.027 573.5,174.5C 575.865,178.424 577.365,182.757 578,187.5C 578.5,217.832 578.667,248.165 578.5,278.5C 582.078,278.549 585.411,279.215 588.5,280.5C 589.635,282.213 591.302,282.88 593.5,282.5C 594.514,283.674 595.847,284.34 597.5,284.5C 598.492,284.328 599.158,284.662 599.5,285.5C 600.865,287.86 602.865,289.527 605.5,290.5C 605.738,292.404 606.738,293.738 608.5,294.5C 608.738,296.404 609.738,297.738 611.5,298.5C 612.338,298.842 612.672,299.508 612.5,300.5C 612.69,303.855 613.69,306.855 615.5,309.5C 619.375,332.421 610.375,347.754 588.5,355.5C 584.833,355.5 581.167,355.5 577.5,355.5C 577.5,386.5 577.5,417.5 577.5,448.5C 574.849,465.486 565.182,476.153 548.5,480.5C 541.471,480.623 534.471,480.29 527.5,479.5C 526.365,477.787 524.698,477.12 522.5,477.5C 521.791,476.596 520.791,476.263 519.5,476.5C 519.5,477.833 519.5,479.167 519.5,480.5C 518.635,487.348 515.635,493.014 510.5,497.5C 509.167,498.167 508.167,499.167 507.5,500.5C 500.533,507.439 492.033,510.772 482,510.5C 479.31,510.497 476.81,510.164 474.5,509.5C 472.562,507.837 470.228,507.171 467.5,507.5C 465.847,507.34 464.514,506.674 463.5,505.5C 463.027,504.094 462.027,503.427 460.5,503.5C 460.027,502.094 459.027,501.427 457.5,501.5C 455.167,499.833 453.167,497.833 451.5,495.5C 451.446,493.368 450.446,492.035 448.5,491.5C 446.519,488.064 445.019,484.397 444,480.5C 443.5,439.501 443.333,398.501 443.5,357.5C 360.668,356.501 277.668,356.167 194.5,356.5C 194.5,396.167 194.5,435.833 194.5,475.5C 194.357,483.278 191.691,489.945 186.5,495.5C 185.094,495.973 184.427,496.973 184.5,498.5C 174.725,508.426 163.058,512.093 149.5,509.5C 147.485,508.076 145.152,507.41 142.5,507.5C 141.365,505.787 139.698,505.12 137.5,505.5C 137.027,504.094 136.027,503.427 134.5,503.5C 133.415,501.413 131.749,500.08 129.5,499.5C 128.5,499.167 127.833,498.5 127.5,497.5C 126.864,495.205 125.531,493.539 123.5,492.5C 120.666,488.336 118.999,483.669 118.5,478.5C 118.289,476.576 117.623,476.243 116.5,477.5C 113.802,479.172 110.802,480.339 107.5,481C 101.651,481.818 95.9846,481.652 90.5,480.5C 88.5615,478.837 86.2282,478.171 83.5,478.5C 82.8166,476.824 81.4832,476.157 79.5,476.5C 78.7377,474.738 77.4044,473.738 75.5,473.5C 74.7377,471.738 73.4044,470.738 71.5,470.5C 70.5,470.167 69.8333,469.5 69.5,468.5C 69.4456,466.368 68.4456,465.035 66.5,464.5C 65.6618,464.158 65.3284,463.492 65.5,462.5C 65.7148,460.821 65.0481,459.821 63.5,459.5C 61.0502,454.475 60.0502,449.142 60.5,443.5C 60.5,414.5 60.5,385.5 60.5,356.5C 58.8333,356.5 57.1667,356.5 55.5,356.5C 52.1912,354.63 48.5246,353.63 44.5,353.5C 42.847,353.34 41.5137,352.674 40.5,351.5C 39.7377,349.738 38.4044,348.738 36.5,348.5C 34.8333,346.167 32.8333,344.167 30.5,342.5C 28.7376,341.738 27.7376,340.404 27.5,338.5C 27.7148,336.821 27.0481,335.821 25.5,335.5C 21.8031,327.505 20.8031,319.171 22.5,310.5C 23.9238,308.485 24.5905,306.152 24.5,303.5C 24.9925,301.181 25.9925,299.181 27.5,297.5C 29.2624,296.738 30.2624,295.404 30.5,293.5C 32.8333,291.833 34.8333,289.833 36.5,287.5C 38.9663,286.702 40.9663,285.369 42.5,283.5C 47.0321,282.543 51.3654,281.21 55.5,279.5C 57.1667,279.5 58.8333,279.5 60.5,279.5C 60.5,250.167 60.5,220.833 60.5,191.5C 60.1655,184.85 61.8321,178.85 65.5,173.5C 66.9063,173.027 67.573,172.027 67.5,170.5C 70.5,168.167 73.1667,165.5 75.5,162.5C 80.6586,160.42 85.6586,158.086 90.5,155.5C 95.9846,154.348 101.651,154.182 107.5,155C 109.852,155.24 111.852,156.073 113.5,157.5C 114.406,158.965 115.739,159.965 117.5,160.5C 118.386,159.675 118.719,158.675 118.5,157.5C 118.861,153.085 120.194,149.085 122.5,145.5C 123.906,145.027 124.573,144.027 124.5,142.5C 128.167,139.5 131.5,136.167 134.5,132.5C 136.027,132.573 137.027,131.906 137.5,130.5C 139.698,130.88 141.365,130.213 142.5,128.5C 145.152,128.59 147.485,127.924 149.5,126.5C 151.641,125.837 153.975,125.503 156.5,125.5C 160.447,125.363 164.114,126.03 167.5,127.5 Z M 163.5,147.5 C 164.899,148.89 166.566,149.89 168.5,150.5C 169.512,151.872 170.512,153.205 171.5,154.5C 171.932,155.71 172.599,156.71 173.5,157.5C 174.662,263.793 174.829,370.127 174,476.5C 173.209,477.745 172.709,479.078 172.5,480.5C 170.937,481.945 169.604,483.611 168.5,485.5C 166.973,485.427 165.973,486.094 165.5,487.5C 161.295,488.91 156.962,489.577 152.5,489.5C 150.351,488.264 148.018,487.264 145.5,486.5C 144.5,484.833 143.167,483.5 141.5,482.5C 141.573,480.973 140.906,479.973 139.5,479.5C 139.005,477.518 138.505,475.518 138,473.5C 137.333,369.833 137.333,266.167 138,162.5C 141.813,149.673 150.313,144.673 163.5,147.5 Z M 485.5,146.5 C 486.93,147.537 488.597,148.204 490.5,148.5C 490.842,149.338 491.508,149.672 492.5,149.5C 493.833,151.5 495.5,153.167 497.5,154.5C 498.594,156.359 499.427,158.359 500,160.5C 500.667,265.5 500.667,370.5 500,475.5C 499.392,477.154 498.892,478.821 498.5,480.5C 488.133,492.032 477.466,492.366 466.5,481.5C 466.573,479.973 465.906,478.973 464.5,478.5C 463.34,372.528 463.173,266.528 464,160.5C 467.759,150.698 474.926,146.032 485.5,146.5 Z M 108.5,177.5 C 110.167,179.833 112.167,181.833 114.5,183.5C 115.32,185.812 116.153,188.146 117,190.5C 117.5,275.499 117.667,360.499 117.5,445.5C 116.264,447.649 115.264,449.982 114.5,452.5C 112.167,454.167 110.167,456.167 108.5,458.5C 107.508,458.328 106.842,458.662 106.5,459.5C 100.717,461.005 95.0505,460.672 89.5,458.5C 87.5398,456.844 85.5398,455.177 83.5,453.5C 82.9553,451.407 82.122,449.407 81,447.5C 80.3333,361.167 80.3333,274.833 81,188.5C 86.753,176.523 95.9197,172.856 108.5,177.5 Z M 534.5,175.5 C 537.833,175.5 541.167,175.5 544.5,175.5C 545.514,176.674 546.847,177.34 548.5,177.5C 548.842,178.338 549.508,178.672 550.5,178.5C 551.167,179.833 552.167,180.833 553.5,181.5C 555.797,184.431 557.297,187.764 558,191.5C 558.667,275.833 558.667,360.167 558,444.5C 557.439,447.279 556.606,449.946 555.5,452.5C 552.327,455.913 548.66,458.58 544.5,460.5C 541.167,460.5 537.833,460.5 534.5,460.5C 530.34,458.58 526.673,455.913 523.5,452.5C 522.228,449.652 521.395,446.652 521,443.5C 520.333,359.833 520.333,276.167 521,192.5C 521.66,185.832 524.827,180.832 530.5,177.5C 532.153,177.34 533.486,176.674 534.5,175.5 Z M 59.5,299.5 C 59.6665,311.838 59.4999,324.171 59,336.5C 57.6439,335.62 56.1439,335.286 54.5,335.5C 51.8695,333.847 49.2028,332.181 46.5,330.5C 46.573,328.973 45.9063,327.973 44.5,327.5C 39.4706,312.896 44.4706,303.562 59.5,299.5 Z M 195.5,299.5 C 278.167,299.5 360.833,299.5 443.5,299.5C 443.5,311.833 443.5,324.167 443.5,336.5C 360.833,336.5 278.167,336.5 195.5,336.5C 195.5,324.167 195.5,311.833 195.5,299.5 Z M 578.5,299.5 C 581.067,300.475 583.733,301.142 586.5,301.5C 586.973,302.906 587.973,303.573 589.5,303.5C 590.833,305.167 592.167,306.833 593.5,308.5C 593.932,309.71 594.599,310.71 595.5,311.5C 597.082,317.429 596.415,323.096 593.5,328.5C 591.142,330.529 588.808,332.529 586.5,334.5C 583.882,334.779 581.382,335.446 579,336.5C 578.5,324.171 578.333,311.838 578.5,299.5 Z"/></g>
</svg>
