<?xml version="1.0" encoding="UTF-8"?>
<!DOCTYPE svg PUBLIC "-//W3C//DTD SVG 1.1//EN" "http://www.w3.org/Graphics/SVG/1.1/DTD/svg11.dtd">
<svg xmlns="http://www.w3.org/2000/svg" version="1.1" width="548px" height="548px" style="shape-rendering:geometricPrecision; text-rendering:geometricPrecision; image-rendering:optimizeQuality; fill-rule:evenodd; clip-rule:evenodd" xmlns:xlink="http://www.w3.org/1999/xlink">
<g><path style="opacity:1" fill="#fff" d="M 266.5,24.5 C 266.427,26.0269 267.094,27.0269 268.5,27.5C 273.12,32.9493 274.62,39.2826 273,46.5C 271.08,53.2491 266.914,57.9158 260.5,60.5C 259.244,60.4614 258.244,60.9614 257.5,62C 261.152,62.4986 264.818,62.6653 268.5,62.5C 276.293,63.9597 280.627,68.6264 281.5,76.5C 281.5,91.8333 281.5,107.167 281.5,122.5C 289.167,122.5 296.833,122.5 304.5,122.5C 307.019,122.848 308.853,124.181 310,126.5C 315.667,141.833 321.333,157.167 327,172.5C 328.801,185.366 323.301,190.866 310.5,189C 308.413,188.208 306.579,187.041 305,185.5C 299.962,173.26 294.796,161.094 289.5,149C 274.794,148.894 260.127,148.227 245.5,147C 236.138,143.64 230.305,137.14 228,127.5C 225.605,109.556 224.272,91.5565 224,73.5C 226.543,67.3258 231.043,63.6592 237.5,62.5C 240.518,62.6646 243.518,62.498 246.5,62C 245.255,61.2086 243.922,60.7086 242.5,60.5C 240.973,60.573 239.973,59.9063 239.5,58.5C 239.027,57.0937 238.027,56.427 236.5,56.5C 230.543,49.8944 228.71,42.2277 231,33.5C 231.608,31.9336 232.442,30.6002 233.5,29.5C 234.906,29.0269 235.573,28.0269 235.5,26.5C 239.707,21.368 245.207,19.0347 252,19.5C 257.619,19.0944 262.452,20.7611 266.5,24.5 Z"/></g>
<g><path style="opacity:0.812" fill="#fff" d="M 266.5,24.5 C 267.906,24.9731 268.573,25.9731 268.5,27.5C 267.094,27.0269 266.427,26.0269 266.5,24.5 Z"/></g>
<g><path style="opacity:0.561" fill="#fff" d="M 235.5,26.5 C 235.573,28.0269 234.906,29.0269 233.5,29.5C 233.427,27.9731 234.094,26.9731 235.5,26.5 Z"/></g>
<g><path style="opacity:0.812" fill="#fff" d="M 236.5,56.5 C 238.027,56.427 239.027,57.0937 239.5,58.5C 237.973,58.573 236.973,57.9063 236.5,56.5 Z"/></g>
<g><path style="opacity:0.502" fill="#fff" d="M 242.5,60.5 C 243.922,60.7086 245.255,61.2086 246.5,62C 243.518,62.498 240.518,62.6646 237.5,62.5C 239.167,61.8333 240.833,61.1667 242.5,60.5 Z"/></g>
<g><path style="opacity:0.502" fill="#fff" d="M 260.5,60.5 C 263.167,61.1667 265.833,61.8333 268.5,62.5C 264.818,62.6653 261.152,62.4986 257.5,62C 258.244,60.9614 259.244,60.4614 260.5,60.5 Z"/></g>
<g><path style="opacity:1" fill="#fff" d="M 174.5,91.5 C 175.906,91.0269 176.573,90.0269 176.5,88.5C 178.458,85.2085 180.791,82.2085 183.5,79.5C 185.749,78.9202 187.415,77.5869 188.5,75.5C 193.809,70.3441 200.143,67.0107 207.5,65.5C 208.66,70.8137 210.327,75.9803 212.5,81C 207.358,84.0746 202.358,87.408 197.5,91C 181.988,108.68 180.488,127.513 193,147.5C 209.065,164.955 227.732,168.289 249,157.5C 253.201,161.535 256.701,166.202 259.5,171.5C 254.705,175.897 249.039,178.731 242.5,180C 213.259,186.454 190.426,177.287 174,152.5C 166.013,136.516 164.346,119.85 169,102.5C 170.337,98.4933 172.17,94.8267 174.5,91.5 Z"/></g>
<g><path style="opacity:1" fill="#fff" d="M 416.5,126.5 C 416.427,128.027 417.094,129.027 418.5,129.5C 456.067,172.504 474.734,222.837 474.5,280.5C 481.847,281.035 489.181,281.701 496.5,282.5C 497.167,283.167 497.833,283.833 498.5,284.5C 486.559,298.445 474.225,312.112 461.5,325.5C 450.881,309.772 440.881,293.605 431.5,277C 431.667,276.5 431.833,276 432,275.5C 440.098,276.727 448.265,277.727 456.5,278.5C 455.236,216.658 432.236,164.658 387.5,122.5C 387.027,121.094 386.027,120.427 384.5,120.5C 367.123,105.802 347.789,94.1352 326.5,85.5C 326.167,84.8333 325.833,84.1667 325.5,83.5C 327.374,78.5442 329.041,73.5442 330.5,68.5C 364.192,80.3486 392.859,99.6819 416.5,126.5 Z"/></g>
<g><path style="opacity:0.812" fill="#fff" d="M 188.5,75.5 C 187.415,77.5869 185.749,78.9202 183.5,79.5C 184.585,77.4131 186.251,76.0798 188.5,75.5 Z"/></g>
<g><path style="opacity:0.251" fill="#fff" d="M 281.5,76.5 C 282.496,91.324 282.829,106.324 282.5,121.5C 290.019,121.175 297.352,121.508 304.5,122.5C 296.833,122.5 289.167,122.5 281.5,122.5C 281.5,107.167 281.5,91.8333 281.5,76.5 Z"/></g>
<g><path style="opacity:0.502" fill="#fff" d="M 176.5,88.5 C 176.573,90.0269 175.906,91.0269 174.5,91.5C 174.427,89.9731 175.094,88.9731 176.5,88.5 Z"/></g>
<g><path style="opacity:1" fill="#fff" d="M 127.5,96.5 C 128.404,97.209 128.737,98.209 128.5,99.5C 126.515,117.563 124.015,135.563 121,153.5C 115.5,148 110,142.5 104.5,137C 103.833,136.333 103.167,136.333 102.5,137C 62.352,180.937 44.352,232.77 48.5,292.5C 44.1515,292.585 39.8181,292.918 35.5,293.5C 33.3587,293.387 31.5253,292.72 30,291.5C 26.1952,227.061 46.0286,171.394 89.5,124.5C 90.8852,123.053 90.5518,122.053 88.5,121.5C 83.202,116.703 78.0354,111.703 73,106.5C 72.3123,105.668 72.479,105.002 73.5,104.5C 91.4234,101.368 109.423,98.7014 127.5,96.5 Z"/></g>
<g><path style="opacity:0.251" fill="#fff" d="M 127.5,96.5 C 128.472,95.2486 129.139,95.582 129.5,97.5C 129.457,98.4164 129.124,99.0831 128.5,99.5C 128.737,98.209 128.404,97.209 127.5,96.5 Z"/></g>
<g><path style="opacity:0.812" fill="#fff" d="M 384.5,120.5 C 386.027,120.427 387.027,121.094 387.5,122.5C 385.973,122.573 384.973,121.906 384.5,120.5 Z"/></g>
<g><path style="opacity:0.376" fill="#fff" d="M 88.5,121.5 C 90.5518,122.053 90.8852,123.053 89.5,124.5C 89.4431,123.391 89.1098,122.391 88.5,121.5 Z"/></g>
<g><path style="opacity:0.812" fill="#fff" d="M 416.5,126.5 C 417.906,126.973 418.573,127.973 418.5,129.5C 417.094,129.027 416.427,128.027 416.5,126.5 Z"/></g>
<g><path style="opacity:1" fill="#fff" d="M 243.5,380.5 C 243.027,379.094 242.027,378.427 240.5,378.5C 202.474,352.155 180.474,315.821 174.5,269.5C 204.258,265.452 229.925,253.119 251.5,232.5C 273.469,253.15 299.469,265.817 329.5,270.5C 324.187,307.296 308.187,338.463 281.5,364C 272.167,371.333 262.833,378.667 253.5,386C 249.375,385.729 246.041,383.896 243.5,380.5 Z M 286.5,298.5 C 274.5,309.833 262.833,321.5 251.5,333.5C 248.416,334.984 245.416,334.818 242.5,333C 236.667,327.167 230.833,321.333 225,315.5C 224.333,314.833 224.333,314.167 225,313.5C 228.333,310.167 231.667,306.833 235,303.5C 238.5,307 242,310.5 245.5,314C 246.5,314.667 247.5,314.667 248.5,314C 258.014,304.319 267.681,294.819 277.5,285.5C 281.318,288.818 284.985,292.318 288.5,296C 287.619,296.708 286.953,297.542 286.5,298.5 Z"/></g>
<g><path style="opacity:0.376" fill="#fff" d="M 496.5,282.5 C 497.675,282.281 498.675,282.614 499.5,283.5C 499.376,284.107 499.043,284.44 498.5,284.5C 497.833,283.833 497.167,283.167 496.5,282.5 Z"/></g>
<g><path style="opacity:0.937" fill="#fff" d="M 286.5,298.5 C 276.09,310.414 265.09,321.914 253.5,333C 252.906,333.464 252.239,333.631 251.5,333.5C 262.833,321.5 274.5,309.833 286.5,298.5 Z"/></g>
<g><path style="opacity:1" fill="#fff" d="M 69.5,384.5 C 68.234,385.09 66.9007,385.59 65.5,386C 70.8229,386.499 76.1563,386.666 81.5,386.5C 89.7323,387.22 95.2323,391.553 98,399.5C 98.833,418.509 98.6664,437.509 97.5,456.5C 92.9215,458.706 88.4215,461.039 84,463.5C 81.0832,485.834 78.2499,508.168 75.5,530.5C 64.8541,531.499 54.1874,531.832 43.5,531.5C 41.4941,508.785 38.9941,486.118 36,463.5C 31.5785,461.039 27.0785,458.706 22.5,456.5C 21.3336,437.175 21.167,417.842 22,398.5C 25.162,391.157 30.662,387.157 38.5,386.5C 43.5111,386.666 48.5111,386.499 53.5,386C 52.4734,385.487 51.4734,384.987 50.5,384.5C 41.1068,380.577 36.1068,373.41 35.5,363C 36.0793,359.436 36.9127,355.936 38,352.5C 38.3768,351.058 39.2101,350.058 40.5,349.5C 41.9063,349.027 42.573,348.027 42.5,346.5C 54.1766,335.855 66.0099,335.855 78,346.5C 86.5558,359.97 85.0558,372.137 73.5,383C 72.255,383.791 70.9217,384.291 69.5,384.5 Z"/></g>
<g><path style="opacity:0.812" fill="#fff" d="M 42.5,346.5 C 42.573,348.027 41.9063,349.027 40.5,349.5C 40.427,347.973 41.0937,346.973 42.5,346.5 Z"/></g>
<g><path style="opacity:0.812" fill="#fff" d="M 240.5,378.5 C 242.027,378.427 243.027,379.094 243.5,380.5C 241.973,380.573 240.973,379.906 240.5,378.5 Z"/></g>
<g><path style="opacity:1" fill="#fff" d="M 463.5,386.5 C 463.427,388.027 464.094,389.027 465.5,389.5C 467.163,391.493 468.33,393.826 469,396.5C 471.745,411.01 466.579,421.344 453.5,427.5C 451.436,427.687 449.436,428.187 447.5,429C 456.343,429.824 465.01,429.657 473.5,428.5C 485.08,418.423 496.247,407.757 507,396.5C 507.464,395.906 507.631,395.239 507.5,394.5C 509.576,391.298 512.576,389.965 516.5,390.5C 522.085,390.374 526.252,392.708 529,397.5C 529.667,401.167 529.667,404.833 529,408.5C 514.049,428.453 498.715,448.12 483,467.5C 482.5,488.831 482.333,510.164 482.5,531.5C 456.5,531.5 430.5,531.5 404.5,531.5C 404.667,509.831 404.5,488.164 404,466.5C 389.333,448.5 374.667,430.5 360,412.5C 354.795,402.497 357.295,395.331 367.5,391C 371.452,390.088 375.119,390.755 378.5,393C 390.369,404.702 402.035,416.535 413.5,428.5C 421.656,429.657 429.99,429.823 438.5,429C 437.255,428.209 435.922,427.709 434.5,427.5C 421.775,422.059 416.275,412.392 418,398.5C 423.647,380.87 435.48,374.37 453.5,379C 457.439,380.791 460.772,383.291 463.5,386.5 Z"/></g>
<g><path style="opacity:0.251" fill="#fff" d="M 69.5,384.5 C 73.5,385.167 77.5,385.833 81.5,386.5C 76.1563,386.666 70.8229,386.499 65.5,386C 66.9007,385.59 68.234,385.09 69.5,384.5 Z"/></g>
<g><path style="opacity:0.251" fill="#fff" d="M 50.5,384.5 C 51.4734,384.987 52.4734,385.487 53.5,386C 48.5111,386.499 43.5111,386.666 38.5,386.5C 42.5,385.833 46.5,385.167 50.5,384.5 Z"/></g>
<g><path style="opacity:0.561" fill="#fff" d="M 463.5,386.5 C 464.906,386.973 465.573,387.973 465.5,389.5C 464.094,389.027 463.427,388.027 463.5,386.5 Z"/></g>
<g><path style="opacity:0.937" fill="#fff" d="M 507.5,394.5 C 507.631,395.239 507.464,395.906 507,396.5C 496.247,407.757 485.08,418.423 473.5,428.5C 484.5,416.833 495.833,405.5 507.5,394.5 Z"/></g>
<g><path style="opacity:0.502" fill="#fff" d="M 434.5,427.5 C 435.922,427.709 437.255,428.209 438.5,429C 429.99,429.823 421.656,429.657 413.5,428.5C 420.687,428.825 427.687,428.491 434.5,427.5 Z"/></g>
<g><path style="opacity:0.502" fill="#fff" d="M 453.5,427.5 C 459.979,428.491 466.646,428.824 473.5,428.5C 465.01,429.657 456.343,429.824 447.5,429C 449.436,428.187 451.436,427.687 453.5,427.5 Z"/></g>
<g><path style="opacity:1" fill="#fff" d="M 196.5,447.5 C 197.492,447.328 198.158,447.662 198.5,448.5C 194.941,455.616 191.941,462.95 189.5,470.5C 241.918,485.936 292.752,481.936 342,458.5C 345.228,463.936 347.562,469.602 349,475.5C 294.805,500.669 239.139,504.336 182,486.5C 181.228,486.645 180.561,486.978 180,487.5C 176.861,495.112 173.194,502.446 169,509.5C 161.898,496.296 155.065,482.963 148.5,469.5C 148.715,467.821 148.048,466.821 146.5,466.5C 145.18,463.86 143.847,461.193 142.5,458.5C 160.264,453.814 178.264,450.147 196.5,447.5 Z"/></g>
<g><path style="opacity:0.125" fill="#fff" d="M 196.5,447.5 C 197.386,446.224 198.386,446.224 199.5,447.5C 199.376,448.107 199.043,448.44 198.5,448.5C 198.158,447.662 197.492,447.328 196.5,447.5 Z"/></g>
<g><path style="opacity:0.937" fill="#fff" d="M 146.5,466.5 C 148.048,466.821 148.715,467.821 148.5,469.5C 147.599,468.71 146.932,467.71 146.5,466.5 Z"/></g>
</svg>
