<?xml version="1.0" encoding="UTF-8"?>
<!DOCTYPE svg PUBLIC "-//W3C//DTD SVG 1.1//EN" "http://www.w3.org/Graphics/SVG/1.1/DTD/svg11.dtd">
<svg xmlns="http://www.w3.org/2000/svg" version="1.1" width="636px" height="636px" style="shape-rendering:geometricPrecision; text-rendering:geometricPrecision; image-rendering:optimizeQuality; fill-rule:evenodd; clip-rule:evenodd" xmlns:xlink="http://www.w3.org/1999/xlink">
<g><path style="opacity:1" fill="#fff" d="M 215.5,71.5 C 284.167,71.3333 352.834,71.5 421.5,72C 422.667,72.5 423.5,73.3333 424,74.5C 423.417,86.1705 422.417,97.8371 421,109.5C 417.633,155.632 424.967,199.966 443,242.5C 450.562,258.394 458.562,274.061 467,289.5C 492.967,351.018 498.3,414.351 483,479.5C 477.151,505.38 469.485,530.713 460,555.5C 459.049,559.243 457.215,562.41 454.5,565C 363.833,565.667 273.167,565.667 182.5,565C 180.951,563.786 179.785,562.286 179,560.5C 158.658,510.466 147.491,458.466 145.5,404.5C 145.818,370.075 151.985,336.742 164,304.5C 174.138,282.225 184.805,260.225 196,238.5C 216.731,186.587 222.231,133.087 212.5,78C 212.391,75.2884 213.391,73.1217 215.5,71.5 Z M 225.5,83.5 C 287.842,82.837 349.842,83.5037 411.5,85.5C 401.532,151.358 412.199,213.691 443.5,272.5C 443.932,273.71 444.599,274.71 445.5,275.5C 446.693,278.052 448.027,280.552 449.5,283C 362.289,310.75 275.289,310.25 188.5,281.5C 224.222,219.887 236.556,153.887 225.5,83.5 Z M 282.5,431.5 C 282.973,432.906 283.973,433.573 285.5,433.5C 290.794,437.823 296.127,442.156 301.5,446.5C 301.973,447.906 302.973,448.573 304.5,448.5C 306.167,450.833 308.167,452.833 310.5,454.5C 310.973,455.906 311.973,456.573 313.5,456.5C 313.5,488.833 313.5,521.167 313.5,553.5C 272.167,553.5 230.833,553.5 189.5,553.5C 174.813,515.754 164.98,476.754 160,436.5C 158.795,424.53 158.295,412.53 158.5,400.5C 195.444,393.602 230.111,399.769 262.5,419C 269.317,422.995 275.984,427.162 282.5,431.5 Z M 477.5,400.5 C 478.445,405.405 478.779,410.405 478.5,415.5C 475.898,462.908 465.565,508.575 447.5,552.5C 406.839,553.5 366.172,553.833 325.5,553.5C 325.333,520.832 325.5,488.165 326,455.5C 366.409,410.19 416.909,391.857 477.5,400.5 Z"/></g>
<g><path style="opacity:0.749" fill="#fff" d="M 225.5,83.5 C 287.664,82.5009 349.998,82.1676 412.5,82.5C 412.737,83.791 412.404,84.791 411.5,85.5C 349.842,83.5037 287.842,82.837 225.5,83.5 Z"/></g>
<g><path style="opacity:1" fill="#fff" d="M 486.5,147.5 C 486.427,149.027 487.094,150.027 488.5,150.5C 489.747,153.799 489.747,157.133 488.5,160.5C 487.711,160.783 487.044,161.283 486.5,162C 507.831,162.5 529.164,162.667 550.5,162.5C 552.514,162.392 554.18,163.058 555.5,164.5C 555.427,166.027 556.094,167.027 557.5,167.5C 561.406,175.281 559.406,181.114 551.5,185C 530.167,185.333 508.833,185.667 487.5,186C 491.568,195.766 488.402,201.933 478,204.5C 475.416,203.896 472.916,203.063 470.5,202C 463.333,194.833 456.167,187.667 449,180.5C 446.692,175.112 447.192,170.112 450.5,165.5C 453.833,164.167 456.167,161.833 457.5,158.5C 462.774,154.895 467.441,150.562 471.5,145.5C 471.918,144.778 472.584,144.278 473.5,144C 476.5,143.333 479.5,143.333 482.5,144C 484.324,144.66 485.657,145.827 486.5,147.5 Z"/></g>
<g><path style="opacity:1" fill="#fff" d="M 149.5,186.5 C 150.043,186.44 150.376,186.107 150.5,185.5C 128.844,184.5 107.177,184.167 85.5,184.5C 79.7993,183.122 77.1326,179.455 77.5,173.5C 77.4623,167.2 80.4623,163.533 86.5,162.5C 107.836,162.667 129.169,162.5 150.5,162C 149.934,161.005 149.267,160.172 148.5,159.5C 147.304,144.891 153.637,140.391 167.5,146C 174,152.5 180.5,159 187,165.5C 189.835,170.343 190.168,175.343 188,180.5C 180.47,188.365 172.636,195.865 164.5,203C 154.776,205.636 149.109,201.97 147.5,192C 147.393,189.779 148.06,187.946 149.5,186.5 Z"/></g>
<g><path style="opacity:0.502" fill="#fff" d="M 486.5,147.5 C 487.906,147.973 488.573,148.973 488.5,150.5C 487.094,150.027 486.427,149.027 486.5,147.5 Z"/></g>
<g><path style="opacity:0.937" fill="#fff" d="M 471.5,145.5 C 467.441,150.562 462.774,154.895 457.5,158.5C 461.559,153.438 466.226,149.105 471.5,145.5 Z"/></g>
<g><path style="opacity:0.251" fill="#fff" d="M 148.5,159.5 C 149.267,160.172 149.934,161.005 150.5,162C 129.169,162.5 107.836,162.667 86.5,162.5C 107.354,162.163 128.02,161.163 148.5,159.5 Z"/></g>
<g><path style="opacity:0.251" fill="#fff" d="M 488.5,160.5 C 509.167,161.167 529.833,161.833 550.5,162.5C 529.164,162.667 507.831,162.5 486.5,162C 487.044,161.283 487.711,160.783 488.5,160.5 Z"/></g>
<g><path style="opacity:0.812" fill="#fff" d="M 457.5,158.5 C 456.167,161.833 453.833,164.167 450.5,165.5C 452.5,162.833 454.833,160.5 457.5,158.5 Z"/></g>
<g><path style="opacity:0.812" fill="#fff" d="M 555.5,164.5 C 556.906,164.973 557.573,165.973 557.5,167.5C 556.094,167.027 555.427,166.027 555.5,164.5 Z"/></g>
<g><path style="opacity:0.502" fill="#fff" d="M 85.5,184.5 C 107.177,184.167 128.844,184.5 150.5,185.5C 150.376,186.107 150.043,186.44 149.5,186.5C 128.167,185.833 106.833,185.167 85.5,184.5 Z"/></g>
<g><path style="opacity:1" fill="#fff" d="M 327.5,250.5 C 327.427,252.027 328.094,253.027 329.5,253.5C 331.971,257.952 332.138,262.619 330,267.5C 325.728,272.264 320.561,273.597 314.5,271.5C 314.027,270.094 313.027,269.427 311.5,269.5C 308.298,267.424 306.965,264.424 307.5,260.5C 307.331,252.335 311.331,248.001 319.5,247.5C 322.466,247.9 325.132,248.9 327.5,250.5 Z"/></g>
<g><path style="opacity:0.812" fill="#fff" d="M 327.5,250.5 C 328.906,250.973 329.573,251.973 329.5,253.5C 328.094,253.027 327.427,252.027 327.5,250.5 Z"/></g>

</svg>
