<?xml version="1.0" encoding="UTF-8"?>
<!DOCTYPE svg PUBLIC "-//W3C//DTD SVG 1.1//EN" "http://www.w3.org/Graphics/SVG/1.1/DTD/svg11.dtd">
<svg xmlns="http://www.w3.org/2000/svg" version="1.1" width="636px" height="636px" style="shape-rendering:geometricPrecision; text-rendering:geometricPrecision; image-rendering:optimizeQuality; fill-rule:evenodd; clip-rule:evenodd" xmlns:xlink="http://www.w3.org/1999/xlink">
<g><path style="opacity:1" fill="#fff" d="M 497.5,147.5 C 497.427,149.027 498.094,150.027 499.5,150.5C 501.833,152.167 503.833,154.167 505.5,156.5C 505.427,158.027 506.094,159.027 507.5,159.5C 545.98,205.027 565.314,257.86 565.5,318C 565.389,369.826 550.722,416.993 521.5,459.5C 521.833,459.833 522.167,460.167 522.5,460.5C 530.752,458.76 539.085,457.927 547.5,458C 551.212,460.513 552.378,464.013 551,468.5C 550.5,470.333 549.333,471.5 547.5,472C 531.744,474.767 516.077,476.267 500.5,476.5C 500.027,475.094 499.027,474.427 497.5,474.5C 494.519,458.649 492.685,442.649 492,426.5C 492.465,425.069 493.299,423.903 494.5,423C 497.592,422.264 500.592,422.431 503.5,423.5C 503.427,425.027 504.094,426.027 505.5,426.5C 506.905,434.018 508.238,441.685 509.5,449.5C 551.837,385.146 561.337,316.146 538,242.5C 505.749,158.588 445.583,107.421 357.5,89C 287.414,78.5187 224.747,95.1854 169.5,139C 163.047,140.944 159.38,138.611 158.5,132C 158.795,129.077 160.129,126.743 162.5,125C 225.634,76.6351 296.301,60.6351 374.5,77C 422.551,88.6778 463.551,112.178 497.5,147.5 Z"/></g>
<g><path style="opacity:1" fill="#fff" d="M 451.5,191.5 C 456.179,191.666 460.845,191.499 465.5,191C 464.956,190.283 464.289,189.783 463.5,189.5C 457.167,183.833 451.167,177.833 445.5,171.5C 445.027,170.094 444.027,169.427 442.5,169.5C 441.102,167.891 439.435,167.058 437.5,167C 429.932,175.071 421.932,182.571 413.5,189.5C 412.957,189.56 412.624,189.893 412.5,190.5C 416.783,191.492 421.116,191.826 425.5,191.5C 427.752,191.916 429.252,193.249 430,195.5C 430.986,230.252 430.653,264.918 429,299.5C 423.919,303.695 419.586,303.029 416,297.5C 415.5,266.835 415.333,236.168 415.5,205.5C 407.16,205.666 398.827,205.5 390.5,205C 384.99,199.73 385.323,194.897 391.5,190.5C 396.105,187.564 400.105,183.898 403.5,179.5C 406.5,175.833 409.833,172.5 413.5,169.5C 418.44,166.23 422.773,162.23 426.5,157.5C 429.647,152.849 433.814,149.516 439,147.5C 440.893,148.196 442.726,149.03 444.5,150C 459.333,164.167 474.167,178.333 489,192.5C 490.483,195.702 490.817,199.036 490,202.5C 489.097,203.701 487.931,204.535 486.5,205C 478.507,205.5 470.507,205.666 462.5,205.5C 462.667,235.835 462.5,266.168 462,296.5C 458.237,303.533 453.571,304.199 448,298.5C 447.333,263.833 447.333,229.167 448,194.5C 448.422,192.574 449.589,191.574 451.5,191.5 Z"/></g>
<g><path style="opacity:0.812" fill="#fff" d="M 497.5,147.5 C 498.906,147.973 499.573,148.973 499.5,150.5C 498.094,150.027 497.427,149.027 497.5,147.5 Z"/></g>
<g><path style="opacity:0.812" fill="#fff" d="M 505.5,156.5 C 506.906,156.973 507.573,157.973 507.5,159.5C 506.094,159.027 505.427,158.027 505.5,156.5 Z"/></g>
<g><path style="opacity:1" fill="#fff" d="M 122.5,444.5 C 122.427,446.027 123.094,447.027 124.5,447.5C 176.262,519.044 246.596,553.21 335.5,550C 384.829,545.819 428.496,528.153 466.5,497C 475.511,496.011 478.677,499.844 476,508.5C 430.345,546.279 377.678,565.279 318,565.5C 223.601,562.823 151.934,521.489 103,441.5C 63.8626,368.247 60.1959,293.247 92,216.5C 98.5163,202.783 106.016,189.783 114.5,177.5C 115.043,177.44 115.376,177.107 115.5,176.5C 113.701,175.212 112.035,175.212 110.5,176.5C 103.214,177.828 95.8808,178.328 88.5,178C 84.7885,175.487 83.6218,171.987 85,167.5C 85.8333,166.667 86.6667,165.833 87.5,165C 102.243,162.469 117.077,160.302 132,158.5C 137.144,159.31 139.81,162.31 140,167.5C 142.244,181.778 143.577,196.111 144,210.5C 138.837,216.062 134.171,215.729 130,209.5C 129,201.5 128,193.5 127,185.5C 81.6222,255.007 73.6222,328.673 103,406.5C 108.745,419.658 115.245,432.325 122.5,444.5 Z"/></g>
<g><path style="opacity:0.937" fill="#fff" d="M 426.5,157.5 C 422.773,162.23 418.44,166.23 413.5,169.5C 417.227,164.77 421.56,160.77 426.5,157.5 Z"/></g>
<g><path style="opacity:0.812" fill="#fff" d="M 442.5,169.5 C 444.027,169.427 445.027,170.094 445.5,171.5C 443.973,171.573 442.973,170.906 442.5,169.5 Z"/></g>
<g><path style="opacity:0.251" fill="#fff" d="M 110.5,176.5 C 112.035,175.212 113.701,175.212 115.5,176.5C 115.376,177.107 115.043,177.44 114.5,177.5C 113.432,176.566 112.099,176.232 110.5,176.5 Z"/></g>
<g><path style="opacity:1" fill="#fff" d="M 365.5,242.5 C 357.167,242.5 348.833,242.5 340.5,242.5C 340.5,260.833 340.5,279.167 340.5,297.5C 339.615,300.658 337.448,302.325 334,302.5C 330.601,302.265 328.268,300.598 327,297.5C 326.333,275.833 326.333,254.167 327,232.5C 328.039,231.29 329.206,230.29 330.5,229.5C 335.214,229.827 339.88,229.493 344.5,228.5C 344.376,227.893 344.043,227.56 343.5,227.5C 342.167,226.833 341.167,225.833 340.5,224.5C 340.027,223.094 339.027,222.427 337.5,222.5C 331.159,216.325 324.659,210.325 318,204.5C 309.641,212.361 301.141,220.027 292.5,227.5C 291.957,227.56 291.624,227.893 291.5,228.5C 295.783,229.492 300.116,229.826 304.5,229.5C 306.371,229.859 307.871,230.859 309,232.5C 309.667,254.5 309.667,276.5 309,298.5C 303.851,303.996 299.184,303.663 295,297.5C 294.5,279.503 294.333,261.503 294.5,243.5C 286.493,243.666 278.493,243.5 270.5,243C 265.669,240.027 264.669,236.194 267.5,231.5C 272.105,228.564 276.105,224.898 279.5,220.5C 282.5,216.833 285.833,213.5 289.5,210.5C 294.105,207.564 298.105,203.898 301.5,199.5C 305.962,193.532 311.462,188.865 318,185.5C 319.5,186 321,186.5 322.5,187C 338,201.833 353.5,216.667 369,231.5C 371.64,236.521 370.473,240.188 365.5,242.5 Z"/></g>
<g><path style="opacity:0.937" fill="#fff" d="M 403.5,179.5 C 400.105,183.898 396.105,187.564 391.5,190.5C 394.895,186.102 398.895,182.436 403.5,179.5 Z"/></g>
<g><path style="opacity:0.502" fill="#fff" d="M 413.5,189.5 C 417.5,190.167 421.5,190.833 425.5,191.5C 421.116,191.826 416.783,191.492 412.5,190.5C 412.624,189.893 412.957,189.56 413.5,189.5 Z"/></g>
<g><path style="opacity:0.502" fill="#fff" d="M 463.5,189.5 C 464.289,189.783 464.956,190.283 465.5,191C 460.845,191.499 456.179,191.666 451.5,191.5C 455.5,190.833 459.5,190.167 463.5,189.5 Z"/></g>
<g><path style="opacity:0.937" fill="#fff" d="M 301.5,199.5 C 298.105,203.898 294.105,207.564 289.5,210.5C 292.895,206.102 296.895,202.436 301.5,199.5 Z"/></g>
<g><path style="opacity:0.812" fill="#fff" d="M 337.5,222.5 C 339.027,222.427 340.027,223.094 340.5,224.5C 338.973,224.573 337.973,223.906 337.5,222.5 Z"/></g>
<g><path style="opacity:1" fill="#fff" d="M 212.5,255.5 C 212.027,254.094 211.027,253.427 209.5,253.5C 205.52,249.855 201.52,246.189 197.5,242.5C 188.846,249.82 180.513,257.487 172.5,265.5C 171.624,265.369 170.957,265.702 170.5,266.5C 175.12,267.493 179.786,267.827 184.5,267.5C 186.017,267.511 187.184,268.177 188,269.5C 188.667,279.167 188.667,288.833 188,298.5C 184.756,302.771 180.922,303.438 176.5,300.5C 175.05,299.15 174.383,297.484 174.5,295.5C 174.5,290.5 174.5,285.5 174.5,280.5C 166.167,280.5 157.833,280.5 149.5,280.5C 149.027,279.094 148.027,278.427 146.5,278.5C 144.97,274.896 145.303,271.563 147.5,268.5C 150.427,267.243 152.761,265.243 154.5,262.5C 157.5,258.833 160.833,255.5 164.5,252.5C 169.44,249.23 173.773,245.23 177.5,240.5C 182.297,235.202 187.297,230.035 192.5,225C 194.754,223.85 197.087,223.516 199.5,224C 201.833,225.667 204.167,227.333 206.5,229C 220.763,242.719 234.93,256.552 249,270.5C 250.361,275.274 248.861,278.774 244.5,281C 236.507,281.5 228.507,281.666 220.5,281.5C 220.91,287.621 220.41,293.621 219,299.5C 213.919,303.695 209.586,303.029 206,297.5C 205.055,288.065 205.389,278.732 207,269.5C 207.903,268.299 209.069,267.465 210.5,267C 214.5,266.667 218.5,266.333 222.5,266C 218.963,262.631 215.629,259.131 212.5,255.5 Z"/></g>
<g><path style="opacity:0.502" fill="#fff" d="M 292.5,227.5 C 296.5,228.167 300.5,228.833 304.5,229.5C 300.116,229.826 295.783,229.492 291.5,228.5C 291.624,227.893 291.957,227.56 292.5,227.5 Z"/></g>
<g><path style="opacity:0.502" fill="#fff" d="M 343.5,227.5 C 344.043,227.56 344.376,227.893 344.5,228.5C 339.88,229.493 335.214,229.827 330.5,229.5C 334.833,228.833 339.167,228.167 343.5,227.5 Z"/></g>
<g><path style="opacity:0.937" fill="#fff" d="M 279.5,220.5 C 276.105,224.898 272.105,228.564 267.5,231.5C 270.895,227.102 274.895,223.436 279.5,220.5 Z"/></g>
<g><path style="opacity:0.502" fill="#fff" d="M 365.5,242.5 C 357.684,243.492 349.684,243.826 341.5,243.5C 341.83,261.674 341.497,279.674 340.5,297.5C 340.5,279.167 340.5,260.833 340.5,242.5C 348.833,242.5 357.167,242.5 365.5,242.5 Z"/></g>
<g><path style="opacity:0.937" fill="#fff" d="M 177.5,240.5 C 173.773,245.23 169.44,249.23 164.5,252.5C 168.227,247.77 172.56,243.77 177.5,240.5 Z"/></g>
<g><path style="opacity:0.812" fill="#fff" d="M 209.5,253.5 C 211.027,253.427 212.027,254.094 212.5,255.5C 210.973,255.573 209.973,254.906 209.5,253.5 Z"/></g>
<g><path style="opacity:0.812" fill="#fff" d="M 154.5,262.5 C 152.761,265.243 150.427,267.243 147.5,268.5C 149.239,265.757 151.573,263.757 154.5,262.5 Z"/></g>
<g><path style="opacity:0.749" fill="#fff" d="M 172.5,265.5 C 176.5,266.167 180.5,266.833 184.5,267.5C 179.786,267.827 175.12,267.493 170.5,266.5C 170.957,265.702 171.624,265.369 172.5,265.5 Z"/></g>
<g><path style="opacity:0.812" fill="#fff" d="M 146.5,278.5 C 148.027,278.427 149.027,279.094 149.5,280.5C 147.973,280.573 146.973,279.906 146.5,278.5 Z"/></g>
<g><path style="opacity:0.502" fill="#fff" d="M 149.5,280.5 C 157.833,280.5 166.167,280.5 174.5,280.5C 174.5,285.5 174.5,290.5 174.5,295.5C 173.514,291.03 173.181,286.363 173.5,281.5C 165.316,281.826 157.316,281.492 149.5,280.5 Z"/></g>
<g><path style="opacity:1" fill="#fff" d="M 409.5,451.5 C 409.027,450.094 408.027,449.427 406.5,449.5C 385.227,439.307 367.394,443.641 353,462.5C 349.224,470.042 347.224,478.042 347,486.5C 345.73,490.77 342.896,493.27 338.5,494C 324.833,494.667 311.167,494.667 297.5,494C 293.32,492.998 290.486,490.498 289,486.5C 289.252,472.344 284.085,460.678 273.5,451.5C 273.027,450.094 272.027,449.427 270.5,449.5C 259.96,443.742 248.96,442.575 237.5,446C 230.66,449.25 224.327,453.25 218.5,458C 215.5,458.667 212.5,458.667 209.5,458C 197.965,448.132 187.465,437.299 178,425.5C 177.299,422.072 177.632,418.738 179,415.5C 181.183,413.093 183.35,410.76 185.5,408.5C 186.906,408.027 187.573,407.027 187.5,405.5C 197.205,382.117 191.205,363.95 169.5,351C 162.039,349.047 154.706,347.213 147.5,345.5C 147.027,344.094 146.027,343.427 144.5,343.5C 142.095,339.232 141.095,334.565 141.5,329.5C 141.667,326.833 141.833,324.167 142,321.5C 142.5,319.667 143.667,318.5 145.5,318C 173.833,317.333 202.167,317.333 230.5,318C 232.333,318.5 233.5,319.667 234,321.5C 238.324,362.331 260.157,388.498 299.5,400C 337.986,406.502 368.153,393.669 390,361.5C 397.099,349.105 401.099,335.772 402,321.5C 402.5,319.667 403.667,318.5 405.5,318C 433.833,317.333 462.167,317.333 490.5,318C 492.333,318.5 493.5,319.667 494,321.5C 495.126,329.045 494.46,336.379 492,343.5C 490.421,345.041 488.587,346.208 486.5,347C 461.139,348.195 446.806,361.362 443.5,386.5C 444.017,393.218 445.85,399.551 449,405.5C 452.385,409.217 455.385,413.217 458,417.5C 458.738,421.261 458.405,424.928 457,428.5C 447.137,438.697 436.971,448.53 426.5,458C 419.278,459.717 413.611,457.55 409.5,451.5 Z"/></g>
<g><path style="opacity:1" fill="#fff" d="M 363.5,318.5 C 363.427,320.027 364.094,321.027 365.5,321.5C 361.905,349.258 346.072,364.258 318,366.5C 293.425,364.727 277.758,352.061 271,328.5C 270.333,325.833 270.333,323.167 271,320.5C 271.5,319.333 272.333,318.5 273.5,318C 303.572,317.175 333.572,317.342 363.5,318.5 Z"/></g>
<g><path style="opacity:0.502" fill="#fff" d="M 363.5,318.5 C 364.906,318.973 365.573,319.973 365.5,321.5C 364.094,321.027 363.427,320.027 363.5,318.5 Z"/></g>
<g><path style="opacity:0.812" fill="#fff" d="M 144.5,343.5 C 146.027,343.427 147.027,344.094 147.5,345.5C 145.973,345.573 144.973,344.906 144.5,343.5 Z"/></g>
<g><path style="opacity:0.561" fill="#fff" d="M 187.5,405.5 C 187.573,407.027 186.906,408.027 185.5,408.5C 185.427,406.973 186.094,405.973 187.5,405.5 Z"/></g>
<g><path style="opacity:0.812" fill="#fff" d="M 503.5,423.5 C 504.906,423.973 505.573,424.973 505.5,426.5C 504.094,426.027 503.427,425.027 503.5,423.5 Z"/></g>
<g><path style="opacity:0.561" fill="#fff" d="M 122.5,444.5 C 123.906,444.973 124.573,445.973 124.5,447.5C 123.094,447.027 122.427,446.027 122.5,444.5 Z"/></g>
<g><path style="opacity:0.812" fill="#fff" d="M 406.5,449.5 C 408.027,449.427 409.027,450.094 409.5,451.5C 407.973,451.573 406.973,450.906 406.5,449.5 Z"/></g>
<g><path style="opacity:0.561" fill="#fff" d="M 270.5,449.5 C 272.027,449.427 273.027,450.094 273.5,451.5C 271.973,451.573 270.973,450.906 270.5,449.5 Z"/></g>
<g><path style="opacity:0.812" fill="#fff" d="M 497.5,474.5 C 499.027,474.427 500.027,475.094 500.5,476.5C 498.973,476.573 497.973,475.906 497.5,474.5 Z"/></g>
</svg>
