<?xml version="1.0" standalone="no"?>
<!DOCTYPE svg PUBLIC "-//W3C//DTD SVG 20010904//EN"
 "http://www.w3.org/TR/2001/REC-SVG-20010904/DTD/svg10.dtd">
<svg version="1.0" xmlns="http://www.w3.org/2000/svg"
 width="637.000000pt" height="637.000000pt" viewBox="0 0 637.000000 637.000000"
 preserveAspectRatio="xMidYMid meet">

<g transform="translate(0.000000,637.000000) scale(0.100000,-0.100000)"
fill="#fff" stroke="none">
<path d="M2905 5711 c-63 -39 -306 -303 -549 -596 -789 -947 -1229 -1779
-1288 -2434 -27 -299 37 -653 172 -946 255 -555 780 -970 1373 -1084 774 -149
1545 182 1981 851 57 88 170 310 181 359 l6 26 -98 7 c-167 12 -266 47 -390
140 -59 44 -137 136 -169 198 -8 15 -18 28 -22 28 -4 0 -41 -64 -82 -142 -86
-166 -138 -239 -212 -295 -133 -101 -240 -138 -403 -137 -125 0 -192 16 -297
71 -115 60 -174 124 -328 354 l-141 209 -72 0 c-299 1 -560 203 -633 490 -20
78 -22 214 -5 290 18 77 82 205 133 267 55 67 144 135 224 174 109 51 168 59
485 59 307 0 379 -9 479 -60 23 -12 43 -20 45 -18 1 2 53 103 114 225 140 278
197 347 360 429 83 41 140 55 251 60 85 5 120 2 180 -14 41 -11 76 -19 77 -18
10 9 -280 422 -447 636 -281 360 -709 843 -775 874 -45 22 -113 20 -150 -3z"/>
<path d="M3955 3794 c-16 -9 -41 -26 -54 -38 -13 -11 -134 -244 -271 -516
l-247 -494 -120 179 c-66 99 -129 188 -140 197 -49 44 -80 48 -358 48 -298 0
-310 -2 -373 -74 -91 -104 -54 -268 73 -327 34 -16 67 -19 220 -19 l180 -1
193 -289 c214 -322 231 -340 326 -348 30 -2 70 1 91 8 81 27 93 46 346 552
131 263 241 478 243 478 3 0 102 -163 221 -362 228 -381 270 -437 341 -457 23
-6 139 -11 285 -11 l247 0 53 28 c149 78 155 285 11 369 -46 27 -51 28 -232
31 l-185 4 -300 500 c-341 570 -326 551 -449 556 -51 2 -79 -2 -101 -14z"/>
</g>
</svg>
