<?xml version="1.0" standalone="no"?>
<!DOCTYPE svg PUBLIC "-//W3C//DTD SVG 20010904//EN"
 "http://www.w3.org/TR/2001/REC-SVG-20010904/DTD/svg10.dtd">
<svg version="1.0" xmlns="http://www.w3.org/2000/svg"
 width="635.000000pt" height="634.000000pt" viewBox="0 0 635.000000 634.000000"
 preserveAspectRatio="xMidYMid meet">

<g transform="translate(0.000000,634.000000) scale(0.100000,-0.100000)"
fill="#fff" stroke="none">
<path d="M2121 5374 c-81 -22 -167 -72 -230 -134 -192 -191 -640 -963 -840
-1449 -204 -496 -381 -1118 -430 -1509 -30 -238 75 -488 267 -631 83 -63 427
-239 632 -324 488 -203 999 -327 1509 -367 172 -13 570 -13 737 0 305 24 646
83 925 159 274 76 638 210 830 306 83 42 160 124 189 201 20 55 20 65 18 907
-3 849 -3 852 -25 899 -70 152 -339 305 -646 369 -121 25 -319 29 -442 10
-232 -37 -479 -158 -664 -327 -71 -64 -96 -110 -82 -146 13 -33 23 -40 157
-107 174 -86 422 -257 469 -324 30 -43 18 -100 -27 -123 -43 -22 -70 -12 -152
57 -207 176 -484 315 -735 369 -252 55 -513 47 -748 -22 -101 -29 -106 -36
-114 -176 -8 -129 -24 -210 -65 -320 -40 -109 -99 -142 -158 -87 -35 32 -33
56 11 183 51 150 55 279 19 597 -37 331 -46 463 -46 685 0 184 1 199 21 224
28 36 89 37 124 1 23 -22 25 -32 25 -118 0 -113 12 -135 76 -144 58 -8 195 22
271 60 77 37 158 114 201 188 38 67 107 272 123 362 35 208 -90 451 -281 544
-37 18 -198 68 -379 117 -285 78 -321 86 -400 85 -47 0 -110 -7 -140 -15z"/>
</g>
</svg>
