<?xml version="1.0" standalone="no"?>
<!DOCTYPE svg PUBLIC "-//W3C//DTD SVG 20010904//EN"
 "http://www.w3.org/TR/2001/REC-SVG-20010904/DTD/svg10.dtd">
<svg version="1.0" xmlns="http://www.w3.org/2000/svg"
 width="637.000000pt" height="636.000000pt" viewBox="0 0 637.000000 636.000000"
 preserveAspectRatio="xMidYMid meet">

<g transform="translate(0.000000,636.000000) scale(0.100000,-0.100000)"
fill="#fff" stroke="none">
<path d="M4769 5711 c-222 -48 -431 -207 -528 -400 -39 -78 -291 -791 -291
-824 0 -57 78 -89 118 -49 10 10 60 137 111 282 165 466 178 499 212 556 45
76 141 170 220 217 104 61 185 82 319 82 91 0 130 -5 185 -22 197 -63 355
-221 418 -418 30 -96 30 -292 0 -375 -22 -60 -901 -2036 -938 -2110 -39 -78
-112 -165 -182 -220 -51 -39 -297 -167 -964 -500 -987 -494 -946 -470 -982
-584 -31 -97 -67 -125 -437 -338 -184 -106 -364 -203 -400 -216 -90 -33 -213
-40 -315 -17 -42 9 -73 21 -69 25 5 5 92 56 194 114 234 135 257 159 209 220
-36 46 -61 37 -314 -109 -129 -74 -240 -135 -247 -135 -29 0 -148 144 -132
160 5 4 124 74 264 155 140 81 263 154 273 162 40 37 4 123 -52 123 -13 0
-145 -70 -293 -156 -191 -110 -273 -152 -281 -145 -7 5 -27 39 -46 74 -56 104
-79 83 432 377 243 140 454 267 470 282 55 54 35 83 -123 177 -96 57 -120 76
-145 116 -42 68 -43 156 -1 235 15 30 32 59 36 64 4 4 124 -59 267 -141 344
-199 314 -186 392 -181 l66 4 630 363 c634 366 696 407 735 481 10 19 104 279
209 576 162 457 190 545 182 567 -19 49 -83 63 -118 25 -11 -13 -98 -245 -198
-528 -97 -278 -188 -528 -202 -557 -19 -42 -35 -59 -81 -87 -154 -92 -1204
-695 -1222 -701 -15 -5 -98 39 -318 166 -321 186 -350 197 -408 161 -41 -26
-120 -163 -140 -244 -41 -160 40 -339 190 -418 25 -14 46 -27 46 -30 0 -3
-172 -104 -383 -225 -210 -121 -397 -233 -415 -249 -48 -42 -72 -95 -72 -160
0 -71 4 -81 113 -271 76 -132 106 -174 172 -240 203 -204 510 -269 773 -162
85 34 726 405 777 449 49 43 97 114 116 173 7 22 20 48 29 59 8 10 407 214
885 453 479 240 899 455 935 478 111 73 215 187 271 297 75 148 935 2092 957
2163 35 113 37 303 4 419 -45 155 -136 297 -258 398 -67 56 -210 129 -299 153
-97 25 -255 28 -356 6z"/>
<path d="M4823 5406 c-119 -29 -237 -115 -295 -216 -15 -25 -196 -524 -403
-1110 -207 -586 -390 -1091 -407 -1122 -58 -110 -102 -140 -653 -457 -280
-162 -524 -304 -541 -317 -49 -36 -84 -116 -84 -188 1 -140 101 -238 245 -239
59 0 70 5 824 384 496 249 783 399 816 425 28 23 68 66 88 95 46 67 557 1213
557 1249 0 53 -71 89 -113 58 -9 -7 -41 -67 -70 -133 -99 -220 -138 -286 -244
-411 -50 -59 -206 -194 -225 -194 -3 0 4 19 17 43 13 23 193 467 400 987 207
520 379 947 382 950 3 3 25 -17 48 -43 61 -66 88 -142 83 -232 -3 -65 -14 -93
-141 -379 -75 -170 -137 -319 -137 -331 0 -30 29 -63 61 -70 48 -12 71 24 209
335 140 314 160 372 160 460 0 298 -288 526 -577 456z m143 -161 c-11 -44
-725 -1827 -759 -1895 -46 -93 -131 -204 -222 -288 -43 -40 -80 -71 -82 -68
-2 2 162 475 366 1050 258 729 379 1060 401 1091 55 80 154 133 254 134 47 1
48 0 42 -24z m-572 -2291 c-76 -170 -95 -204 -138 -248 -46 -47 -118 -85 -802
-429 -414 -207 -763 -377 -777 -377 -13 0 -36 10 -51 21 -38 30 -49 64 -35
106 13 40 -151 -58 1444 862 192 111 370 217 395 235 25 18 47 32 48 30 2 -1
-36 -91 -84 -200z"/>
<path d="M2370 4333 c-23 -8 -299 -284 -316 -315 -18 -34 -18 -82 0 -116 8
-15 85 -97 170 -181 l155 -155 -49 -52 c-41 -43 -50 -59 -50 -89 0 -76 24 -92
164 -111 135 -18 153 -17 176 6 50 50 7 130 -69 130 -49 0 -67 12 -46 30 9 8
23 27 32 43 29 57 15 79 -170 265 l-172 172 113 112 112 113 167 -167 c93 -91
178 -171 191 -178 30 -15 75 -4 112 27 22 18 31 21 34 11 5 -14 56 -444 56
-465 0 -9 -16 -13 -48 -13 -59 0 -82 -20 -82 -73 0 -49 26 -64 123 -77 102
-13 146 6 161 70 9 39 -79 727 -95 746 -8 10 -28 23 -46 30 -43 18 -75 6 -133
-51 l-45 -45 -155 156 c-85 85 -167 162 -182 170 -27 14 -79 17 -108 7z"/>
<path d="M5354 3535 c-27 -11 -51 -60 -247 -501 -119 -269 -217 -499 -217
-511 0 -54 87 -85 123 -45 16 18 431 941 442 983 4 17 0 33 -14 51 -26 32 -50
39 -87 23z"/>
<path d="M2070 3000 c-141 -83 -160 -99 -160 -137 0 -30 42 -73 71 -73 31 0
285 147 310 179 35 44 -1 112 -60 110 -14 0 -87 -36 -161 -79z"/>
<path d="M2395 2830 c-330 -192 -344 -202 -323 -261 12 -36 59 -56 94 -40 44
20 568 323 602 348 25 19 32 31 32 59 0 42 -30 74 -67 73 -17 0 -149 -70 -338
-179z"/>
<path d="M5414 2919 c-24 -12 -25 -14 -150 -295 -52 -117 -94 -219 -94 -228 0
-25 45 -66 72 -66 13 0 33 7 44 15 23 16 234 479 234 513 0 46 -62 82 -106 61z"/>
<path d="M4679 2121 c-22 -23 -29 -39 -29 -70 0 -67 79 -690 90 -711 16 -30
51 -50 88 -50 26 0 44 11 88 52 l55 52 167 -166 c179 -178 202 -192 267 -168
17 6 96 77 178 158 218 218 219 214 -21 454 l-157 158 48 47 c27 28 49 61 53
79 8 41 -16 88 -53 103 -28 11 -654 91 -714 91 -20 0 -40 -10 -60 -29z m388
-157 l233 -27 -30 -34 c-23 -26 -30 -43 -30 -75 0 -41 5 -47 170 -213 94 -94
170 -175 170 -180 0 -5 -48 -58 -107 -117 l-107 -108 -176 175 c-172 170 -177
175 -218 175 -32 0 -49 -7 -77 -31 -19 -17 -35 -28 -35 -25 0 11 -50 421 -56
460 -5 34 -4 37 12 33 11 -3 124 -18 251 -33z"/>
</g>
</svg>
