<?xml version="1.0" standalone="no"?>
<!DOCTYPE svg PUBLIC "-//W3C//DTD SVG 20010904//EN"
 "http://www.w3.org/TR/2001/REC-SVG-20010904/DTD/svg10.dtd">
<svg version="1.0" xmlns="http://www.w3.org/2000/svg"
 width="635.000000pt" height="634.000000pt" viewBox="0 0 635.000000 634.000000"
 preserveAspectRatio="xMidYMid meet">

<g transform="translate(0.000000,634.000000) scale(0.100000,-0.100000)"
fill="#fff" stroke="none">
<path d="M1545 5679 c-115 -15 -213 -46 -330 -104 -296 -144 -499 -414 -561
-742 -22 -118 -15 -335 14 -445 30 -110 84 -231 145 -319 33 -49 165 -192 365
-395 l312 -319 738 738 737 737 -325 324 c-345 342 -393 381 -551 448 -163 68
-382 99 -544 77z"/>
<path d="M4449 5660 c-47 -10 -125 -34 -173 -53 -198 -81 -101 10 -1810 -1696
-931 -930 -1591 -1597 -1625 -1641 -135 -180 -201 -384 -201 -621 0 -784 833
-1284 1526 -915 46 25 110 65 141 90 82 63 3184 3171 3220 3226 217 324 241
729 66 1072 -141 276 -404 476 -707 539 -120 25 -318 25 -437 -1z m81 -692
c39 -27 70 -81 70 -123 0 -17 -8 -46 -19 -65 -56 -107 -210 -107 -263 0 -49
97 22 210 132 210 32 0 57 -7 80 -22z m-418 -423 c68 -46 85 -139 37 -206 -62
-88 -203 -76 -251 21 -67 133 90 269 214 185z m838 3 c65 -45 86 -121 52 -188
-53 -107 -207 -107 -263 0 -23 43 -24 81 -3 127 38 78 144 108 214 61z m-1276
-413 c18 -9 134 -118 258 -243 188 -189 228 -234 239 -270 25 -85 49 -58 -688
-793 -732 -731 -700 -703 -783 -679 -26 7 -95 70 -268 242 -128 128 -240 245
-248 260 -17 32 -18 76 -4 115 12 30 1305 1332 1355 1364 36 23 95 24 139 4z
m857 -9 c124 -84 63 -271 -87 -268 -76 1 -144 71 -144 148 0 75 72 144 150
144 32 0 56 -7 81 -24z m-2572 -1701 c113 -58 113 -206 1 -263 -96 -49 -199
11 -208 122 -3 41 1 58 20 86 42 63 125 87 187 55z m-421 -419 c97 -50 114
-169 36 -242 -93 -88 -244 -19 -244 112 0 102 119 176 208 130z m853 -8 c86
-48 101 -159 30 -229 -71 -72 -181 -56 -230 32 -73 130 70 271 200 197z m-444
-409 c67 -25 110 -100 97 -169 -10 -46 -71 -107 -117 -115 -51 -10 -120 17
-149 58 -32 44 -32 129 -1 173 39 55 108 77 170 53z"/>
<path d="M3067 3252 l-537 -537 105 -105 105 -105 540 540 540 540 -102 102
c-57 57 -105 103 -108 103 -3 0 -247 -242 -543 -538z"/>
<path d="M4122 2207 c-402 -402 -732 -737 -732 -743 0 -6 138 -148 308 -315
333 -331 407 -390 566 -455 160 -65 223 -77 406 -77 137 0 178 3 243 21 393
108 673 388 770 772 18 70 21 113 21 245 -1 140 -4 172 -27 259 -34 126 -100
262 -176 363 -33 43 -192 210 -353 370 l-293 293 -733 -733z"/>
</g>
</svg>
