<?xml version="1.0" standalone="no"?>
<!DOCTYPE svg PUBLIC "-//W3C//DTD SVG 20010904//EN"
 "http://www.w3.org/TR/2001/REC-SVG-20010904/DTD/svg10.dtd">
<svg version="1.0" xmlns="http://www.w3.org/2000/svg"
 width="634.000000pt" height="635.000000pt" viewBox="0 0 634.000000 635.000000"
 preserveAspectRatio="xMidYMid meet">

<g transform="translate(0.000000,635.000000) scale(0.100000,-0.100000)"
fill="#fff" stroke="none">
<path d="M3590 5744 c-159 -43 -275 -177 -302 -351 -14 -88 -4 -311 17 -387
45 -162 149 -284 307 -360 105 -50 190 -73 298 -82 95 -7 117 4 153 78 48 95
59 202 52 503 -8 338 -24 395 -134 498 -108 101 -251 138 -391 101z"/>
<path d="M2550 5070 c-34 -34 -27 -82 20 -124 l40 -36 -290 0 -291 0 -24 -25
c-40 -39 -32 -96 16 -120 23 -12 82 -15 305 -15 l278 0 -37 -34 c-29 -27 -37
-41 -37 -69 0 -40 36 -77 76 -77 21 0 217 139 287 204 32 29 36 73 10 104 -10
12 -74 64 -142 117 -134 103 -170 116 -211 75z"/>
<path d="M3058 4795 c-16 -9 -28 -17 -28 -18 -18 -111 -34 -167 -59 -212 -17
-30 -31 -67 -31 -83 0 -62 82 -94 129 -50 55 50 123 265 102 321 -18 47 -69
66 -113 42z"/>
<path d="M3478 4583 c-8 -10 -21 -40 -28 -66 -18 -67 -71 -145 -180 -267 -119
-133 -173 -207 -220 -300 -79 -159 -104 -275 -104 -485 0 -268 43 -440 188
-757 89 -196 120 -284 141 -402 26 -153 17 -265 -30 -371 -12 -27 -59 -108
-105 -179 -136 -212 -193 -351 -220 -541 -30 -216 12 -554 76 -604 26 -21 37
-21 529 -21 483 0 503 1 519 19 20 22 18 40 -20 161 -15 50 -56 129 -117 230
-52 85 -151 250 -221 365 -158 260 -318 576 -314 620 2 25 8 30 28 30 23 0 35
-20 125 -200 108 -216 149 -288 347 -609 177 -286 212 -354 243 -471 40 -152
34 -145 105 -145 70 0 111 17 128 55 21 45 14 74 -47 188 -82 153 -103 226
-151 514 -61 362 -112 549 -199 721 -16 31 -71 127 -124 213 -147 244 -140
211 -143 674 -3 611 -21 733 -139 931 -16 27 -17 34 -5 48 7 10 23 16 34 14
31 -5 93 -102 122 -192 47 -151 56 -247 63 -736 l6 -455 26 -60 c14 -33 63
-121 108 -195 92 -149 160 -279 185 -354 9 -26 21 -57 27 -67 14 -26 47 -24
58 3 16 39 73 780 78 1008 5 192 3 227 -16 327 -42 222 -122 404 -313 713
-153 249 -143 221 -143 397 0 89 -4 156 -10 161 -5 5 -46 21 -90 36 -44 15
-95 36 -113 47 -41 24 -65 24 -84 2z"/>
<path d="M2783 4323 c-19 -21 -61 -78 -94 -127 -60 -91 -70 -126 -48 -167 25
-47 107 -41 133 10 8 14 46 71 85 125 39 55 71 110 71 122 0 38 -37 74 -77 74
-28 0 -42 -8 -70 -37z"/>
<path d="M2560 3892 c-27 -22 -47 -95 -62 -228 -11 -91 -10 -104 5 -128 19
-29 55 -41 93 -32 30 8 54 58 54 115 0 21 7 75 15 118 21 109 20 128 -11 152
-33 26 -65 27 -94 3z"/>
<path d="M2520 3370 c-24 -24 -25 -58 -5 -171 25 -145 42 -189 77 -204 23 -9
39 -10 61 -3 49 18 54 45 29 166 -11 59 -24 127 -27 151 -4 24 -16 52 -26 62
-26 26 -83 25 -109 -1z"/>
<path d="M2683 2890 c-25 -10 -43 -39 -43 -71 0 -30 116 -280 137 -296 28 -21
77 -16 103 12 31 34 25 64 -48 218 -48 100 -66 129 -87 137 -31 12 -33 12 -62
0z"/>
<path d="M2361 2434 c-32 -41 -27 -72 19 -115 l39 -38 -175 -3 c-171 -3 -176
-4 -195 -27 -10 -13 -19 -36 -19 -51 0 -15 9 -38 19 -51 19 -23 24 -24 195
-27 l175 -3 -39 -38 c-46 -43 -51 -74 -19 -115 15 -19 30 -26 54 -26 28 0 59
19 172 108 l138 107 0 45 0 45 -138 107 c-113 89 -144 108 -172 108 -24 0 -39
-7 -54 -26z"/>
<path d="M2841 2384 c-12 -15 -21 -29 -21 -33 0 -3 5 -46 10 -96 8 -64 8 -103
0 -137 -10 -38 -9 -51 4 -76 31 -60 118 -49 142 18 27 75 12 293 -23 332 -26
29 -87 24 -112 -8z"/>
<path d="M2743 1917 c-38 -21 -173 -244 -173 -285 0 -33 38 -72 71 -72 43 0
66 15 88 58 10 20 44 77 75 126 31 49 56 98 56 108 0 25 -53 78 -77 78 -10 -1
-28 -6 -40 -13z"/>
</g>
</svg>
