<?xml version="1.0" standalone="no"?>
<!DOCTYPE svg PUBLIC "-//W3C//DTD SVG 20010904//EN"
 "http://www.w3.org/TR/2001/REC-SVG-20010904/DTD/svg10.dtd">
<svg version="1.0" xmlns="http://www.w3.org/2000/svg"
 width="637.000000pt" height="637.000000pt" viewBox="0 0 637.000000 637.000000"
 preserveAspectRatio="xMidYMid meet">

<g transform="translate(0.000000,637.000000) scale(0.100000,-0.100000)"
fill="#fff" stroke="none">
<path d="M4699 5680 c-195 -30 -353 -161 -430 -355 -20 -51 -23 -78 -23 -180
0 -107 3 -128 26 -188 15 -37 42 -88 59 -114 18 -26 28 -48 23 -50 -30 -10
-118 -69 -177 -117 -94 -79 -182 -193 -238 -311 -72 -150 -89 -233 -96 -467
l-6 -196 -48 38 c-27 21 -76 55 -109 75 l-60 37 19 26 c193 275 99 654 -200
801 -162 79 -316 79 -478 0 -298 -147 -393 -526 -200 -800 l18 -26 -90 -59
c-150 -97 -280 -251 -349 -413 -55 -129 -71 -217 -77 -432 l-6 -197 -54 44
c-30 25 -79 59 -109 76 -53 29 -54 31 -39 52 34 48 76 140 90 198 83 353 -196
688 -555 665 -197 -13 -368 -124 -450 -292 -92 -187 -78 -383 40 -561 l20 -31
-67 -39 c-91 -53 -222 -180 -288 -278 -106 -159 -151 -307 -161 -526 -8 -168
5 -260 50 -356 42 -88 120 -168 205 -208 l61 -30 0 -349 c0 -336 1 -351 21
-387 11 -20 35 -45 52 -56 30 -18 58 -19 547 -19 497 0 516 1 548 20 19 11 42
37 53 57 18 34 19 63 19 386 l0 348 49 23 c151 68 249 212 267 391 17 173 24
16 24 -526 0 -555 1 -587 19 -622 11 -20 34 -46 53 -57 32 -19 51 -20 548 -20
497 0 516 1 548 20 19 11 42 37 53 57 18 35 19 67 19 621 l0 585 55 27 c141
68 235 204 257 367 6 49 15 88 20 88 4 0 8 -371 8 -825 0 -792 1 -827 19 -863
11 -20 34 -46 53 -57 32 -19 51 -20 548 -20 489 0 517 1 547 19 17 11 41 36
52 56 21 37 21 44 21 861 l0 824 43 18 c106 44 205 151 248 269 23 63 23 66
27 648 4 636 -2 747 -44 883 -70 223 -228 424 -414 529 -30 17 -56 32 -58 33
-1 1 13 28 33 60 74 124 101 259 76 390 -36 192 -195 367 -381 418 -74 21
-163 27 -231 17z m187 -314 c128 -60 180 -221 110 -341 -49 -84 -121 -125
-218 -125 -94 0 -164 41 -214 125 -119 204 105 442 322 341z m44 -782 c116
-27 205 -79 300 -174 65 -64 95 -103 122 -160 68 -138 68 -135 68 -826 l0
-621 -23 -34 c-31 -47 -80 -77 -135 -84 -66 -8 -112 -34 -134 -75 -17 -33 -18
-77 -18 -847 l0 -813 -330 0 -330 0 0 813 c0 764 -1 814 -18 846 -22 41 -71
68 -134 76 -55 7 -104 37 -135 84 l-23 34 0 626 c0 602 1 629 21 701 29 108
81 194 168 281 88 88 177 141 282 169 91 23 229 25 319 4z m-1634 -159 c44
-18 102 -72 125 -117 107 -209 -119 -437 -329 -332 -125 62 -176 210 -113 331
18 35 47 67 94 103 50 37 152 44 223 15z m49 -787 c179 -38 355 -181 436 -353
58 -122 60 -146 57 -577 l-3 -393 -24 -34 c-28 -39 -91 -70 -141 -71 -44 0
-94 -30 -120 -72 -19 -32 -20 -52 -20 -610 l0 -578 -330 0 -330 0 0 578 c0
558 -1 578 -20 610 -26 42 -76 72 -120 72 -50 1 -113 32 -141 71 l-24 34 -3
393 c-2 332 0 404 13 455 55 218 215 388 430 462 101 34 222 39 340 13z
m-1618 -166 c155 -79 188 -275 68 -395 -98 -98 -247 -101 -343 -8 -55 54 -76
104 -76 181 0 72 17 114 68 168 75 81 188 102 283 54z m92 -797 c159 -50 298
-170 372 -320 58 -119 69 -175 69 -351 0 -141 -2 -153 -23 -185 -31 -47 -83
-79 -126 -79 -53 -1 -117 -34 -141 -72 -19 -31 -20 -50 -20 -375 l0 -343 -330
0 -330 0 0 343 c0 325 -1 344 -20 375 -24 38 -88 71 -141 72 -43 0 -95 32
-126 79 -21 32 -23 44 -23 185 0 176 11 233 70 351 89 181 262 308 468 345 77
14 211 3 301 -25z"/>
</g>
</svg>
